<?xml version="1.0" standalone="no"?>
<!DOCTYPE svg PUBLIC "-//W3C//DTD SVG 20010904//EN"
 "http://www.w3.org/TR/2001/REC-SVG-20010904/DTD/svg10.dtd">
<svg version="1.0" xmlns="http://www.w3.org/2000/svg"
 width="300.000000pt" height="300.000000pt" viewBox="0 0 300.000000 300.000000"
 preserveAspectRatio="xMidYMid meet">
<metadata>
Created by potrace 1.10, written by Peter Selinger 2001-2011
</metadata>
<g transform="translate(0.000000,300.000000) scale(0.100000,-0.100000)"
fill="#000000" stroke="none">
<path d="M1191 2901 c-26 -25 -31 -36 -31 -76 0 -40 5 -51 31 -76 17 -16 42
-29 54 -29 30 0 81 -42 71 -58 -5 -8 -38 -12 -90 -12 -77 0 -85 -2 -110 -26
-46 -46 -28 -137 33 -168 50 -26 79 -70 87 -133 8 -70 22 -93 73 -121 49 -28
66 -27 116 3 49 30 104 32 164 5 24 -11 54 -20 68 -20 61 0 113 62 113 134 0
53 22 95 74 144 87 82 51 148 -89 167 -28 3 -57 10 -65 15 -21 13 11 44 76 75
65 31 84 56 84 113 0 76 -61 113 -128 78 -28 -14 -39 -31 -63 -95 -7 -19 -26
-50 -42 -68 -32 -36 -63 -45 -54 -15 34 103 33 136 -5 172 -53 49 -148 1 -148
-75 0 -20 10 -54 22 -75 33 -57 13 -62 -38 -8 -32 34 -44 55 -44 77 0 21 -10
41 -35 66 -45 44 -81 46 -124 6z m112 -28 c11 -11 17 -31 17 -57 0 -37 5 -46
52 -87 l52 -46 1 -129 2 -128 32 -14 c19 -7 34 -12 36 -10 1 2 -1 28 -6 58 -4
30 -8 109 -8 176 -1 107 -3 123 -21 139 -29 26 -33 50 -15 84 19 38 59 50 94
29 22 -12 26 -21 24 -53 -2 -21 -9 -48 -17 -61 -12 -17 -15 -60 -16 -191 0
-92 -1 -171 0 -175 0 -4 14 -1 32 6 l31 14 -2 128 -2 129 51 50 c38 37 52 59
57 89 11 69 61 95 112 60 19 -14 22 -22 16 -53 -11 -60 -22 -71 -65 -71 -34 0
-44 -6 -79 -47 l-41 -48 0 -94 c0 -105 17 -117 27 -19 l6 55 71 -4 c98 -6 114
-10 121 -34 11 -35 -3 -63 -41 -84 -51 -27 -97 -111 -84 -154 12 -43 3 -68
-35 -91 -42 -26 -64 -25 -122 6 -57 31 -101 27 -173 -13 l-47 -26 -44 24 c-43
24 -44 25 -49 84 -7 84 -39 141 -91 162 -43 17 -59 42 -59 94 0 22 6 32 26 39
37 14 167 12 186 -2 9 -7 18 -34 21 -61 2 -27 10 -54 17 -60 9 -9 10 6 5 73
-4 47 -12 94 -17 105 -21 41 -72 85 -99 85 -43 0 -73 31 -73 75 0 68 65 94
117 48z"/>
<path d="M1215 2835 c-17 -13 -18 -16 -5 -25 24 -16 55 -8 55 15 0 25 -24 30
-50 10z"/>
<path d="M1487 2836 c-9 -23 19 -41 38 -26 12 10 13 16 4 26 -15 18 -35 18
-42 0z"/>
<path d="M1747 2836 c-9 -23 19 -41 38 -26 12 10 13 16 4 26 -15 18 -35 18
-42 0z"/>
<path d="M1765 2571 c-48 -6 -50 -7 -56 -43 -14 -86 -101 -167 -189 -176 -92
-9 -200 72 -218 162 l-8 41 -58 0 c-70 0 -82 -16 -28 -37 28 -11 49 -31 80
-78 38 -57 41 -66 33 -97 -12 -42 -7 -56 25 -73 22 -12 27 -11 52 13 25 24 35
27 103 27 64 0 80 -4 109 -25 41 -30 52 -31 75 -5 13 15 16 29 11 59 -5 34 -1
46 34 98 29 45 50 64 80 76 32 12 40 20 40 41 0 28 3 27 -85 17z m-101 -227
c9 -35 -5 -49 -33 -35 -26 14 -27 36 -3 50 25 15 29 14 36 -15z m-269 -9 c0
-13 -8 -21 -22 -23 -17 -3 -23 2 -23 16 0 10 3 22 7 26 13 13 38 1 38 -19z"/>
<path d="M846 2409 c-45 -35 -48 -50 -35 -167 12 -114 44 -218 105 -348 37
-78 57 -95 124 -109 56 -12 97 -42 114 -85 24 -61 19 -81 -9 -34 -28 47 -81
74 -143 74 -21 0 -45 6 -54 13 -8 6 -32 53 -52 102 -43 104 -80 165 -101 165
-20 0 -19 -10 4 -34 11 -12 36 -61 56 -111 21 -49 46 -107 56 -127 19 -38 19
-38 83 -38 54 0 69 -4 95 -25 31 -27 64 -110 77 -194 11 -70 -15 -47 -61 55
-22 49 -44 92 -50 96 -5 4 -29 8 -53 8 -64 0 -108 22 -130 67 -11 21 -36 90
-57 153 -21 63 -42 120 -48 125 -32 32 47 -248 87 -308 26 -39 79 -67 128 -67
44 0 46 -3 101 -99 67 -118 97 -121 105 -10 l5 60 34 -71 c37 -76 75 -110 126
-110 34 0 83 24 96 47 8 15 12 16 35 3 20 -10 29 -11 38 -2 19 19 38 14 60
-13 16 -20 28 -25 64 -25 89 0 118 34 174 200 58 170 70 185 157 197 26 3 56
10 66 15 24 12 82 131 123 254 32 96 34 111 32 210 -3 101 -4 108 -29 126 -14
11 -50 22 -81 25 -53 5 -58 4 -82 -22 -15 -16 -29 -40 -32 -54 -3 -14 -20 -55
-39 -91 -18 -36 -47 -105 -65 -155 -36 -105 -46 -118 -121 -156 -72 -36 -89
-64 -129 -214 -18 -66 -34 -127 -37 -135 -12 -30 -22 68 -22 210 l-1 146 67
11 c70 12 108 38 98 65 -11 29 -65 38 -231 38 -158 0 -164 -1 -191 -24 -23
-20 -26 -28 -17 -43 16 -27 54 -43 101 -43 31 0 45 -5 53 -19 12 -24 14 -331
1 -331 -4 0 -16 28 -25 63 -62 228 -67 237 -167 287 -50 26 -59 35 -82 88 -15
33 -34 79 -42 103 -9 24 -28 66 -44 94 -15 27 -33 69 -39 91 -7 23 -24 53 -38
68 -35 34 -117 37 -158 5z m113 -10 c36 -13 51 -35 51 -77 0 -17 14 -51 34
-80 18 -28 48 -90 65 -139 41 -113 63 -148 104 -163 112 -44 114 -47 166 -251
57 -227 58 -234 27 -254 -30 -20 -83 -14 -115 13 -13 10 -42 74 -71 157 -57
158 -84 195 -145 195 -19 0 -35 5 -35 10 0 16 93 12 118 -6 27 -18 54 -71 112
-217 34 -87 47 -108 66 -113 59 -15 59 -14 -37 317 l-19 66 -65 28 c-82 34
-102 60 -153 193 -45 116 -66 152 -88 152 -22 0 -71 -27 -77 -43 -7 -19 99
-335 120 -359 17 -20 17 -20 -1 -17 -30 6 -53 45 -117 204 -57 142 -60 152
-48 187 10 31 9 42 -5 71 -22 48 -20 80 7 104 37 34 58 38 106 22z m1180 -14
c45 -23 54 -66 24 -116 -14 -24 -15 -32 -4 -52 17 -32 10 -64 -50 -218 -49
-125 -83 -179 -114 -179 -13 0 -12 4 5 28 23 31 85 198 105 283 12 52 11 59
-4 73 -10 9 -31 19 -48 22 -40 8 -50 -7 -105 -152 -22 -60 -49 -121 -59 -135
-11 -15 -47 -39 -84 -54 l-65 -28 -24 -81 c-38 -126 -86 -293 -86 -300 0 -8
34 -8 54 0 8 3 36 60 62 127 69 179 79 196 127 218 44 19 97 25 97 10 0 -5
-16 -12 -37 -16 -48 -9 -85 -48 -110 -115 -11 -30 -32 -90 -48 -133 -38 -106
-64 -137 -119 -137 -48 0 -66 13 -66 50 0 32 41 192 82 319 l30 93 73 34 c81
37 69 19 145 222 18 45 42 95 54 110 13 15 26 47 29 72 3 25 13 50 23 57 24
17 78 16 113 -2z m-1106 -320 c54 -134 77 -164 158 -205 30 -16 60 -39 66 -52
18 -40 75 -248 71 -260 -3 -7 -24 35 -48 93 -24 57 -54 121 -67 142 -31 49
-81 71 -139 62 l-43 -6 -40 123 c-59 183 -64 234 -24 226 12 -2 33 -41 66
-123z m1043 111 c5 -14 -16 -95 -62 -237 l-25 -77 -62 -4 c-88 -6 -110 -24
-164 -135 -25 -52 -47 -92 -50 -89 -7 7 28 126 49 169 14 29 31 43 73 61 65
29 93 67 141 197 20 51 40 101 45 111 11 21 47 24 55 4z m-376 -146 c24 -15 8
-20 -92 -32 l-95 -10 10 -57 c12 -77 4 -458 -11 -473 -7 -7 -15 -9 -18 -5 -4
3 -7 126 -8 272 l-1 265 -65 1 c-74 1 -112 9 -117 26 -2 6 4 13 14 16 34 9
368 7 383 -3z"/>
<path d="M891 2366 c-30 -32 -22 -73 14 -82 49 -12 72 37 39 84 -19 28 -25 28
-53 -2z"/>
<path d="M2066 2361 c-33 -37 1 -100 41 -75 35 22 39 42 13 69 -28 30 -32 30
-54 6z"/>
<path d="M2180 1998 c-11 -18 -39 -76 -61 -128 -23 -52 -48 -102 -56 -111 -8
-10 -35 -18 -67 -21 -69 -6 -107 -34 -135 -98 -47 -109 -50 -210 -6 -210 20 0
80 84 95 132 12 43 29 53 103 63 86 11 134 87 182 283 16 67 16 74 1 97 -22
33 -32 32 -56 -7z m15 -125 c-57 -189 -72 -206 -182 -218 l-61 -7 -28 -67
c-34 -81 -63 -131 -75 -131 -12 0 -12 6 11 89 40 142 67 171 160 171 60 0 76
17 121 133 17 45 41 102 52 127 21 42 22 43 25 18 2 -15 -9 -67 -23 -115z"/>
<path d="M1325 1310 c-12 -4 -27 -15 -35 -25 -12 -14 -11 -21 5 -51 15 -27 16
-36 5 -49 -7 -8 -21 -15 -33 -15 -28 0 -83 -36 -108 -71 l-21 -29 -43 44 c-47
49 -89 63 -151 51 -53 -10 -71 -24 -109 -85 -52 -85 -128 -150 -175 -150 -61
0 -120 70 -120 142 1 43 32 111 61 132 41 28 81 20 134 -26 l48 -42 23 28 c29
33 31 85 5 117 -16 20 -29 23 -110 27 -115 6 -164 -11 -220 -75 -51 -57 -64
-98 -59 -181 7 -126 85 -203 209 -210 93 -6 133 3 173 38 l33 30 19 -22 c39
-43 120 -60 181 -37 15 5 43 24 61 42 l32 31 33 -31 c43 -43 75 -53 160 -53
60 0 79 4 107 23 l34 24 40 -24 c50 -28 99 -29 150 -3 39 19 39 19 64 0 33
-27 111 -27 143 -1 24 19 24 20 7 49 -24 40 -25 140 -2 149 8 3 26 1 38 -5 19
-8 24 -20 28 -61 9 -88 75 -151 158 -151 58 0 101 23 133 72 41 63 44 99 14
161 -34 68 -66 87 -150 87 -50 0 -70 -5 -91 -21 l-26 -21 -32 27 c-31 26 -36
27 -107 21 -42 -4 -90 -14 -107 -22 -29 -14 -35 -14 -70 5 -69 37 -138 21
-192 -45 l-32 -39 0 92 c0 146 -27 185 -105 153z m92 -405 c34 -8 19 -21 -34
-30 -29 -5 -43 -3 -43 4 0 8 -6 9 -19 1 -49 -26 -128 5 -151 60 -7 18 -10 50
-7 77 4 39 12 54 47 86 37 35 46 39 86 35 l44 -3 0 53 c0 45 -3 55 -20 59 -22
6 -27 22 -7 27 6 2 26 7 42 12 l30 9 3 -191 2 -192 27 -7z m-642 365 c23 -9
26 -15 23 -52 -3 -45 -22 -62 -33 -28 -10 30 -63 60 -108 60 -84 0 -136 -59
-144 -163 -4 -52 -1 -69 19 -106 39 -72 115 -99 192 -67 20 8 37 25 45 45 20
46 45 42 36 -6 -12 -66 -32 -78 -138 -78 -108 0 -148 18 -186 85 -66 117 -20
264 95 305 46 17 161 19 199 5z m266 -145 c80 -42 91 -166 21 -229 -25 -22
-97 -32 -134 -17 -42 16 -83 78 -83 126 0 46 40 109 79 125 33 14 84 11 117
-5z m600 -8 c31 -21 56 -78 43 -99 -3 -5 -43 -8 -90 -8 -90 0 -93 -3 -69 -49
24 -47 75 -60 139 -35 29 11 17 -16 -16 -36 -60 -36 -131 -18 -168 43 -38 61
-17 151 42 187 43 26 77 25 119 -3z m173 1 c-6 -22 -6 -22 12 -7 41 36 104 35
104 -1 0 -27 -17 -34 -52 -19 -45 18 -58 -5 -58 -102 0 -66 3 -80 20 -92 11
-8 17 -17 13 -20 -10 -11 -133 -8 -133 3 0 6 6 10 14 10 19 0 36 52 36 111 0
58 -14 99 -35 99 -27 0 -16 19 18 29 56 16 69 14 61 -11z m330 8 c96 -40 104
-181 13 -236 -93 -57 -207 18 -194 128 11 98 91 146 181 108z m-423 -199 c-7
-7 -16 -5 -29 6 -12 11 -36 17 -70 17 -40 0 -52 4 -52 15 0 11 12 15 49 15 38
0 56 6 78 24 l28 24 3 -45 c2 -25 -1 -50 -7 -56z"/>
<path d="M1241 1089 c-40 -44 -39 -117 4 -163 26 -28 66 -34 84 -12 8 9 11 46
9 103 l-3 88 -37 3 c-27 2 -41 -2 -57 -19z m59 -28 c19 -36 9 -121 -15 -121
-15 0 -35 43 -35 76 0 29 16 64 30 64 5 0 14 -9 20 -19z"/>
<path d="M942 1103 c-7 -3 -19 -18 -27 -33 -36 -70 0 -162 66 -168 29 -2 39 2
51 20 36 55 30 118 -14 166 -20 21 -48 27 -76 15z m44 -31 c31 -20 44 -86 24
-123 -15 -26 -35 -24 -59 7 -25 32 -27 71 -5 102 16 24 23 26 40 14z"/>
<path d="M1531 1084 c-12 -15 -21 -31 -21 -35 0 -5 29 -9 65 -9 36 0 65 4 65
9 0 20 -43 61 -65 61 -14 0 -32 -11 -44 -26z"/>
<path d="M2036 1085 c-27 -41 -30 -82 -11 -126 22 -48 65 -75 95 -59 25 13 50
61 50 95 0 89 -94 151 -134 90z m61 -13 c24 -15 44 -79 33 -107 -12 -32 -37
-42 -57 -23 -20 20 -28 90 -14 117 13 23 19 25 38 13z"/>
<path d="M2310 1161 c-55 -11 -63 -19 -55 -55 16 -75 17 -165 1 -198 -15 -29
-15 -33 -1 -47 24 -24 297 -23 321 0 14 15 14 19 1 45 -8 16 -18 64 -22 107
-8 87 -33 136 -75 148 -32 9 -125 9 -170 0z m50 -43 c0 -20 1 -20 19 -4 11 10
37 20 58 23 60 8 75 -17 83 -130 6 -98 12 -117 36 -117 8 0 12 -4 9 -10 -7
-12 -135 -14 -135 -2 0 4 9 13 21 20 19 12 21 21 17 98 -3 89 -11 104 -55 104
-41 0 -53 -25 -53 -111 0 -68 3 -81 20 -91 34 -21 23 -28 -44 -28 -71 0 -89
11 -51 28 23 11 25 17 25 81 0 79 -12 121 -35 121 -26 0 -17 19 13 26 15 3 32
7 37 9 25 8 35 3 35 -17z m74 -74 c10 -25 7 -108 -4 -124 -9 -13 -12 -12 -25
4 -15 20 -21 116 -8 129 11 12 31 7 37 -9z"/>
</g>
</svg>
