<?xml version="1.0" standalone="no"?>
<!DOCTYPE svg PUBLIC "-//W3C//DTD SVG 20010904//EN"
 "http://www.w3.org/TR/2001/REC-SVG-20010904/DTD/svg10.dtd">
<svg version="1.0" xmlns="http://www.w3.org/2000/svg"
 width="64.000000pt" height="64.000000pt" viewBox="0 0 64.000000 64.000000"
 preserveAspectRatio="xMidYMid meet">
<metadata>
Created by potrace 1.10, written by Peter Selinger 2001-2011
</metadata>
<g transform="translate(0.000000,64.000000) scale(0.100000,-0.100000)"
fill="#000000" stroke="none">
<path d="M273 488 c-18 -20 -142 -257 -155 -298 -8 -22 10 -50 39 -61 36 -13
56 7 109 112 23 48 49 89 56 92 9 3 31 -29 66 -98 29 -57 60 -106 68 -109 27
-10 69 16 72 46 3 29 -115 277 -151 316 -13 14 -32 22 -52 22 -20 0 -39 -8
-52 -22z m68 -8 c11 8 31 -24 95 -153 l82 -162 -27 -11 c-26 -11 -26 -10 -96
128 l-70 138 -69 -138 -69 -139 -28 10 -27 11 81 162 c67 134 84 161 97 154 9
-5 22 -5 31 0z"/>
</g>
</svg>
